<?xml version="1.0" encoding="utf-8"?>
<!-- Generator: Adobe Illustrator 16.0.0, SVG Export Plug-In . SVG Version: 6.00 Build 0)  -->
<!DOCTYPE svg PUBLIC "-//W3C//DTD SVG 1.1//EN" "http://www.w3.org/Graphics/SVG/1.1/DTD/svg11.dtd">
<svg version="1.1" id="Layer_1" xmlns="http://www.w3.org/2000/svg" xmlns:xlink="http://www.w3.org/1999/xlink" x="0px" y="0px"
	 width="101.792px" height="25px" viewBox="0 0 101.792 25" enable-background="new 0 0 101.792 25" xml:space="preserve">
<g>
	<defs>
		<rect id="SVGID_1_" width="101.792" height="25"/>
	</defs>
	<clipPath id="SVGID_2_">
		<use xlink:href="#SVGID_1_"  overflow="visible"/>
	</clipPath>
	<path clip-path="url(#SVGID_2_)" fill="#FFFFFF" d="M26.754,8.858h10.31v1.926h-4.049v10.809h-2.229V10.785h-4.031V8.858z
		 M36.617,12.372h1.908v1.783h0.036c0.059-0.249,0.175-0.493,0.348-0.731c0.172-0.237,0.38-0.454,0.625-0.65
		c0.243-0.196,0.514-0.354,0.811-0.473s0.601-0.178,0.91-0.178c0.238,0,0.401,0.006,0.491,0.018
		c0.089,0.012,0.181,0.024,0.276,0.036v1.962c-0.143-0.023-0.288-0.045-0.437-0.063c-0.148-0.018-0.294-0.026-0.437-0.026
		c-0.345,0-0.668,0.068-0.972,0.205c-0.303,0.137-0.568,0.339-0.793,0.606c-0.226,0.268-0.404,0.598-0.535,0.989
		c-0.131,0.393-0.196,0.845-0.196,1.355v4.389h-2.033V12.372z M51.352,21.594h-1.997V20.31h-0.036
		c-0.25,0.464-0.622,0.835-1.115,1.114c-0.494,0.279-0.996,0.419-1.507,0.419c-1.213,0-2.09-0.3-2.631-0.9
		c-0.542-0.601-0.812-1.507-0.812-2.72v-5.851h2.033v5.654c0,0.809,0.154,1.379,0.464,1.712c0.309,0.333,0.743,0.5,1.302,0.5
		c0.428,0,0.785-0.065,1.07-0.196c0.286-0.131,0.518-0.307,0.696-0.526s0.306-0.484,0.383-0.794
		c0.077-0.309,0.116-0.642,0.116-0.999v-5.351h2.033V21.594z M54.813,18.633c0.059,0.595,0.285,1.011,0.678,1.248
		c0.392,0.238,0.861,0.357,1.409,0.357c0.189,0,0.407-0.016,0.65-0.045c0.244-0.029,0.473-0.086,0.687-0.17
		c0.215-0.083,0.39-0.205,0.526-0.365s0.199-0.371,0.188-0.633s-0.106-0.476-0.285-0.643c-0.179-0.166-0.407-0.3-0.687-0.401
		c-0.28-0.101-0.598-0.188-0.955-0.259c-0.356-0.071-0.719-0.148-1.088-0.231c-0.38-0.083-0.746-0.185-1.097-0.304
		c-0.351-0.118-0.666-0.279-0.945-0.481s-0.503-0.461-0.669-0.775c-0.166-0.315-0.25-0.705-0.25-1.169
		c0-0.499,0.122-0.918,0.366-1.257c0.243-0.339,0.553-0.612,0.928-0.82c0.374-0.208,0.79-0.354,1.248-0.438
		c0.458-0.083,0.895-0.125,1.312-0.125c0.475,0,0.93,0.05,1.364,0.151c0.434,0.101,0.826,0.265,1.177,0.491
		c0.351,0.226,0.643,0.521,0.874,0.883c0.232,0.362,0.378,0.8,0.438,1.311h-2.123c-0.095-0.487-0.318-0.814-0.669-0.98
		c-0.351-0.167-0.752-0.25-1.204-0.25c-0.143,0-0.312,0.012-0.508,0.036c-0.196,0.023-0.381,0.068-0.553,0.133
		c-0.173,0.066-0.318,0.161-0.438,0.286s-0.178,0.288-0.178,0.49c0,0.25,0.086,0.452,0.259,0.606
		c0.172,0.154,0.397,0.282,0.678,0.384c0.278,0.101,0.597,0.187,0.954,0.258c0.356,0.071,0.725,0.149,1.105,0.232
		c0.368,0.083,0.731,0.185,1.088,0.303c0.356,0.119,0.675,0.28,0.954,0.482s0.506,0.458,0.678,0.767
		c0.173,0.31,0.259,0.689,0.259,1.142c0,0.547-0.125,1.011-0.374,1.392c-0.25,0.38-0.574,0.689-0.973,0.927
		c-0.398,0.238-0.841,0.41-1.329,0.518c-0.487,0.107-0.969,0.16-1.444,0.16c-0.583,0-1.121-0.065-1.614-0.196
		c-0.493-0.13-0.922-0.329-1.284-0.597c-0.363-0.268-0.648-0.601-0.856-0.999s-0.318-0.871-0.33-1.418H54.813z M61.519,12.372h1.534
		V9.607h2.033v2.765h1.837v1.516h-1.837v4.923c0,0.215,0.009,0.398,0.026,0.554c0.019,0.154,0.06,0.285,0.125,0.392
		c0.065,0.107,0.163,0.188,0.295,0.241c0.13,0.054,0.309,0.08,0.534,0.08c0.144,0,0.286-0.003,0.429-0.009s0.285-0.026,0.428-0.063
		v1.569c-0.226,0.024-0.445,0.048-0.66,0.071c-0.214,0.024-0.434,0.036-0.659,0.036c-0.535,0-0.967-0.051-1.294-0.151
		c-0.327-0.102-0.582-0.25-0.767-0.446s-0.31-0.442-0.375-0.74c-0.064-0.297-0.104-0.636-0.115-1.017v-5.44h-1.534V12.372z
		 M68.35,12.372h1.927v1.248h0.035c0.286-0.534,0.684-0.918,1.195-1.15c0.511-0.232,1.064-0.348,1.659-0.348
		c0.725,0,1.358,0.128,1.899,0.383c0.541,0.256,0.989,0.606,1.347,1.053c0.356,0.445,0.624,0.966,0.803,1.561
		c0.178,0.595,0.268,1.23,0.268,1.908c0,0.618-0.08,1.219-0.241,1.802c-0.16,0.582-0.404,1.097-0.731,1.543
		c-0.327,0.445-0.74,0.802-1.239,1.069c-0.5,0.268-1.088,0.401-1.766,0.401c-0.298,0-0.595-0.026-0.892-0.08
		c-0.298-0.054-0.583-0.14-0.856-0.259c-0.273-0.118-0.526-0.27-0.758-0.454c-0.232-0.185-0.426-0.401-0.58-0.651h-0.036V25H68.35
		V12.372z M75.45,16.991c0-0.416-0.054-0.82-0.161-1.213c-0.106-0.392-0.268-0.74-0.481-1.043c-0.214-0.304-0.481-0.547-0.803-0.731
		s-0.689-0.276-1.105-0.276c-0.856,0-1.502,0.298-1.936,0.892c-0.435,0.595-0.651,1.386-0.651,2.372c0,0.464,0.057,0.896,0.17,1.294
		c0.112,0.398,0.282,0.74,0.508,1.025s0.497,0.511,0.812,0.678c0.315,0.167,0.681,0.25,1.098,0.25c0.464,0,0.855-0.096,1.177-0.286
		c0.321-0.189,0.586-0.437,0.794-0.74c0.208-0.303,0.356-0.647,0.446-1.034C75.405,17.791,75.45,17.396,75.45,16.991 M79.035,8.858
		h2.033v1.926h-2.033V8.858z M79.035,12.372h2.033v9.222h-2.033V12.372z M82.885,8.858h2.033v12.735h-2.033V8.858z M91.143,21.843
		c-0.737,0-1.395-0.122-1.971-0.365c-0.577-0.243-1.064-0.58-1.463-1.008s-0.702-0.939-0.909-1.534
		c-0.209-0.594-0.313-1.248-0.313-1.962c0-0.701,0.104-1.35,0.313-1.944c0.207-0.594,0.511-1.105,0.909-1.534
		c0.398-0.428,0.886-0.764,1.463-1.007c0.576-0.243,1.233-0.365,1.971-0.365s1.395,0.122,1.971,0.365
		c0.577,0.244,1.064,0.58,1.463,1.007c0.398,0.429,0.701,0.94,0.909,1.534c0.208,0.595,0.313,1.243,0.313,1.944
		c0,0.714-0.104,1.368-0.313,1.962c-0.208,0.595-0.511,1.106-0.909,1.534s-0.886,0.765-1.463,1.008
		C92.538,21.721,91.88,21.843,91.143,21.843 M91.143,20.238c0.452,0,0.844-0.096,1.177-0.286c0.333-0.189,0.606-0.439,0.821-0.749
		c0.214-0.309,0.371-0.656,0.473-1.043c0.101-0.387,0.151-0.782,0.151-1.187c0-0.393-0.051-0.784-0.151-1.177
		c-0.102-0.393-0.259-0.74-0.473-1.044c-0.215-0.303-0.488-0.55-0.821-0.74c-0.333-0.189-0.725-0.285-1.177-0.285
		s-0.845,0.096-1.177,0.285c-0.333,0.19-0.606,0.438-0.821,0.74c-0.214,0.304-0.371,0.651-0.473,1.044
		c-0.101,0.393-0.151,0.784-0.151,1.177c0,0.404,0.051,0.8,0.151,1.187c0.102,0.387,0.259,0.734,0.473,1.043
		c0.215,0.31,0.488,0.56,0.821,0.749C90.298,20.143,90.691,20.238,91.143,20.238 M96.387,12.372h1.533V9.607h2.033v2.765h1.838
		v1.516h-1.838v4.923c0,0.215,0.01,0.398,0.027,0.554c0.018,0.154,0.06,0.285,0.125,0.392c0.064,0.107,0.163,0.188,0.294,0.241
		s0.31,0.08,0.535,0.08c0.143,0,0.285-0.003,0.428-0.009c0.144-0.006,0.286-0.026,0.429-0.063v1.569
		c-0.227,0.024-0.446,0.048-0.66,0.071c-0.214,0.024-0.435,0.036-0.66,0.036c-0.535,0-0.966-0.051-1.293-0.151
		c-0.327-0.102-0.583-0.25-0.767-0.446c-0.185-0.196-0.31-0.442-0.375-0.74c-0.065-0.297-0.104-0.636-0.116-1.017v-5.44h-1.533
		V12.372z"/>
</g>
<polygon fill="#204F2C" points="17.505,16.361 16.775,14.115 12.37,17.493 12.191,17.714 12.37,17.714 "/>
<path fill="#51B27E" d="M12.191,17.714l7.531,5.474l-2.225-6.848L12.191,17.714z M9.313,8.856L0,8.854l7.535,5.476l-2.877,8.857
	l7.534-5.474l4.655-3.382l7.534-5.474l0,0l-9.313-0.001L12.19,0L9.313,8.856z"/>
</svg>
