<?xml version="1.0" encoding="utf-8"?>
<!-- Generator: Adobe Illustrator 16.0.0, SVG Export Plug-In . SVG Version: 6.00 Build 0)  -->
<!DOCTYPE svg PUBLIC "-//W3C//DTD SVG 1.1//EN" "http://www.w3.org/Graphics/SVG/1.1/DTD/svg11.dtd">
<svg version="1.1" id="Layer_1" xmlns="http://www.w3.org/2000/svg" xmlns:xlink="http://www.w3.org/1999/xlink" x="0px" y="0px"
	 width="115.996px" height="47px" viewBox="16.502 6.5 115.996 47" enable-background="new 16.502 6.5 115.996 47"
	 xml:space="preserve">
<g>
	<g>
		<path d="M23.248,45.01h-3.007v7.398h-0.74V45.01H16.5v-0.576h6.748V45.01z"/>
		<path d="M27.364,47.041c-0.152-0.025-0.315-0.037-0.487-0.037c-0.246,0-0.467,0.031-0.663,0.098s-0.371,0.158-0.521,0.275
			c-0.15,0.119-0.276,0.262-0.38,0.422c-0.102,0.162-0.183,0.342-0.244,0.539v4.07h-0.717v-5.926h0.706l0.012,0.941
			c0.177-0.326,0.417-0.582,0.72-0.77c0.304-0.189,0.677-0.281,1.118-0.281c0.088,0,0.179,0.008,0.271,0.021
			c0.093,0.016,0.16,0.031,0.205,0.051L27.364,47.041z"/>
		<path d="M33.006,51.658c-0.206,0.271-0.477,0.482-0.816,0.633c-0.341,0.152-0.761,0.229-1.263,0.229
			c-0.322,0-0.612-0.041-0.874-0.125c-0.261-0.08-0.486-0.211-0.675-0.391c-0.189-0.18-0.334-0.408-0.437-0.693
			c-0.104-0.281-0.154-0.627-0.154-1.031v-3.795h0.717v3.807c0,0.316,0.041,0.582,0.12,0.793c0.081,0.215,0.189,0.383,0.325,0.51
			c0.137,0.129,0.296,0.219,0.479,0.275c0.184,0.055,0.377,0.08,0.582,0.08c0.289,0,0.544-0.027,0.765-0.086
			c0.222-0.059,0.411-0.141,0.572-0.248c0.161-0.105,0.294-0.229,0.398-0.371c0.104-0.145,0.187-0.299,0.247-0.471v-4.289h0.723
			v5.926h-0.697L33.006,51.658z"/>
		<path d="M39.803,50.902c0-0.119-0.023-0.24-0.068-0.361c-0.047-0.121-0.133-0.234-0.26-0.342s-0.304-0.209-0.53-0.303
			c-0.229-0.092-0.521-0.174-0.883-0.244c-0.361-0.068-0.685-0.148-0.967-0.24c-0.284-0.092-0.523-0.203-0.718-0.332
			c-0.195-0.129-0.343-0.283-0.443-0.465c-0.101-0.178-0.15-0.387-0.15-0.629c0-0.219,0.053-0.428,0.16-0.625
			c0.106-0.197,0.259-0.367,0.458-0.514c0.197-0.146,0.439-0.262,0.723-0.348c0.284-0.086,0.601-0.129,0.955-0.129
			c0.377,0,0.715,0.047,1.016,0.135c0.299,0.088,0.552,0.213,0.759,0.373s0.365,0.346,0.474,0.561
			c0.108,0.217,0.162,0.449,0.162,0.701h-0.724c0-0.152-0.036-0.303-0.111-0.449c-0.073-0.146-0.183-0.275-0.325-0.385
			c-0.142-0.113-0.318-0.203-0.53-0.273c-0.21-0.07-0.45-0.104-0.72-0.104c-0.281,0-0.521,0.031-0.72,0.094
			c-0.198,0.061-0.361,0.143-0.488,0.24c-0.126,0.1-0.219,0.209-0.276,0.332c-0.059,0.123-0.088,0.246-0.088,0.369
			c0,0.133,0.022,0.252,0.065,0.361c0.045,0.105,0.13,0.207,0.257,0.299c0.127,0.094,0.304,0.18,0.53,0.26
			c0.227,0.078,0.522,0.154,0.89,0.23c0.394,0.084,0.732,0.18,1.017,0.281c0.286,0.102,0.521,0.223,0.709,0.363
			c0.187,0.141,0.325,0.301,0.415,0.482c0.092,0.182,0.137,0.389,0.137,0.627c0,0.244-0.057,0.469-0.169,0.672
			c-0.112,0.201-0.273,0.375-0.482,0.52s-0.462,0.256-0.76,0.336c-0.297,0.082-0.628,0.121-0.993,0.121
			c-0.413,0-0.779-0.049-1.097-0.146c-0.317-0.096-0.584-0.225-0.801-0.391c-0.218-0.164-0.38-0.354-0.491-0.568
			c-0.11-0.213-0.165-0.434-0.165-0.664h0.723c0.017,0.232,0.083,0.428,0.198,0.584c0.117,0.154,0.262,0.277,0.435,0.371
			c0.174,0.094,0.365,0.16,0.575,0.201c0.212,0.039,0.419,0.061,0.624,0.061c0.272,0,0.515-0.029,0.723-0.088
			c0.209-0.059,0.386-0.139,0.527-0.236c0.143-0.098,0.25-0.211,0.322-0.34C39.766,51.174,39.803,51.043,39.803,50.902z"/>
		<path d="M43.576,44.965v1.518h1.35v0.537h-1.35v3.949c0,0.209,0.022,0.375,0.069,0.502c0.046,0.125,0.107,0.225,0.186,0.295
			c0.079,0.072,0.169,0.119,0.271,0.143c0.103,0.025,0.211,0.037,0.323,0.037c0.108,0,0.213-0.006,0.313-0.02
			c0.1-0.014,0.191-0.025,0.271-0.035l0.03,0.537c-0.088,0.029-0.204,0.051-0.347,0.068c-0.143,0.016-0.284,0.023-0.425,0.023
			c-0.205,0-0.395-0.023-0.569-0.074s-0.324-0.133-0.449-0.254c-0.124-0.121-0.222-0.281-0.292-0.48
			c-0.07-0.197-0.105-0.445-0.105-0.74v-3.949h-1.199v-0.537h1.199v-1.518h0.723V44.965z"/>
		<path d="M49.253,52.52c-0.426,0-0.817-0.072-1.174-0.217c-0.358-0.145-0.666-0.344-0.926-0.602s-0.461-0.564-0.605-0.918
			c-0.146-0.354-0.217-0.742-0.217-1.166v-0.236c0-0.455,0.075-0.871,0.226-1.24c0.15-0.371,0.355-0.686,0.612-0.949
			c0.257-0.26,0.553-0.463,0.889-0.604c0.335-0.143,0.689-0.213,1.063-0.213c0.413,0,0.782,0.066,1.104,0.201
			c0.32,0.137,0.591,0.326,0.81,0.566c0.22,0.24,0.385,0.527,0.497,0.859c0.113,0.332,0.169,0.695,0.169,1.09v0.4h-4.651v0.125
			c0,0.326,0.055,0.633,0.162,0.916c0.108,0.289,0.261,0.537,0.457,0.75c0.197,0.213,0.433,0.379,0.706,0.502
			c0.272,0.121,0.576,0.182,0.909,0.182c0.386,0,0.727-0.063,1.022-0.191c0.294-0.127,0.562-0.33,0.804-0.613l0.452,0.313
			c-0.108,0.143-0.233,0.277-0.377,0.406c-0.142,0.127-0.308,0.238-0.496,0.334c-0.189,0.096-0.401,0.17-0.639,0.225
			C49.811,52.492,49.546,52.52,49.253,52.52z M49.12,46.934c-0.273,0-0.526,0.047-0.76,0.141c-0.232,0.096-0.438,0.23-0.617,0.406
			c-0.179,0.178-0.325,0.387-0.439,0.633s-0.192,0.52-0.232,0.82h3.91v-0.072c-0.008-0.248-0.053-0.488-0.132-0.721
			c-0.081-0.23-0.197-0.438-0.353-0.617c-0.154-0.178-0.347-0.32-0.576-0.428C49.692,46.986,49.426,46.934,49.12,46.934z"/>
		<path d="M53.122,49.393c0-0.461,0.059-0.877,0.175-1.246c0.116-0.373,0.282-0.689,0.5-0.951c0.217-0.264,0.48-0.467,0.793-0.609
			c0.311-0.141,0.661-0.213,1.05-0.213c0.463,0,0.859,0.084,1.19,0.252s0.605,0.4,0.823,0.695v-3.324h0.717v8.412h-0.675
			l-0.031-0.787c-0.217,0.281-0.493,0.5-0.828,0.66c-0.336,0.158-0.738,0.238-1.209,0.238c-0.386,0-0.732-0.076-1.041-0.221
			c-0.31-0.148-0.572-0.354-0.789-0.621c-0.218-0.264-0.384-0.58-0.501-0.949c-0.116-0.369-0.175-0.775-0.175-1.223L53.122,49.393
			L53.122,49.393z M53.851,49.506c0,0.346,0.038,0.668,0.115,0.967c0.076,0.297,0.192,0.557,0.35,0.773
			c0.156,0.221,0.354,0.393,0.593,0.516c0.239,0.125,0.523,0.188,0.853,0.188c0.245,0,0.467-0.027,0.666-0.08
			s0.375-0.127,0.53-0.223c0.154-0.096,0.289-0.207,0.404-0.34c0.114-0.131,0.211-0.275,0.292-0.428v-2.781
			c-0.071-0.15-0.161-0.293-0.265-0.434c-0.104-0.139-0.232-0.262-0.386-0.369c-0.152-0.107-0.329-0.193-0.53-0.256
			c-0.201-0.066-0.434-0.098-0.698-0.098c-0.334,0-0.621,0.064-0.862,0.188c-0.241,0.127-0.439,0.299-0.596,0.52
			c-0.157,0.219-0.273,0.477-0.35,0.775c-0.077,0.301-0.115,0.623-0.115,0.967L53.851,49.506L53.851,49.506z"/>
		<path d="M69.02,50.449c0-0.219-0.041-0.414-0.118-0.586c-0.078-0.168-0.21-0.322-0.396-0.465c-0.188-0.141-0.434-0.27-0.738-0.387
			c-0.306-0.115-0.687-0.232-1.145-0.35c-0.441-0.113-0.84-0.236-1.192-0.369c-0.354-0.135-0.654-0.291-0.901-0.469
			s-0.438-0.385-0.572-0.619s-0.201-0.508-0.201-0.822c0-0.307,0.072-0.586,0.217-0.838c0.144-0.252,0.347-0.469,0.608-0.648
			c0.261-0.18,0.572-0.322,0.934-0.422c0.362-0.1,0.757-0.15,1.188-0.15c0.46,0,0.878,0.063,1.249,0.188
			c0.372,0.121,0.688,0.293,0.949,0.508s0.462,0.467,0.603,0.756s0.211,0.6,0.211,0.932h-0.747c0-0.26-0.051-0.5-0.15-0.721
			c-0.101-0.221-0.247-0.414-0.44-0.572c-0.192-0.16-0.429-0.287-0.71-0.377c-0.282-0.092-0.603-0.139-0.964-0.139
			c-0.362,0-0.681,0.039-0.956,0.119c-0.275,0.078-0.504,0.182-0.687,0.316c-0.183,0.133-0.322,0.289-0.416,0.469
			c-0.095,0.178-0.142,0.369-0.142,0.57c0,0.189,0.04,0.363,0.117,0.525c0.079,0.162,0.21,0.309,0.395,0.445
			c0.186,0.139,0.429,0.266,0.729,0.385c0.301,0.117,0.672,0.229,1.114,0.336c0.463,0.117,0.874,0.244,1.235,0.383
			s0.667,0.303,0.916,0.49c0.248,0.189,0.438,0.406,0.566,0.65s0.193,0.527,0.193,0.848c0,0.326-0.076,0.617-0.228,0.873
			c-0.15,0.26-0.358,0.477-0.627,0.656c-0.267,0.18-0.586,0.316-0.954,0.41c-0.37,0.096-0.771,0.143-1.206,0.143
			c-0.26,0-0.523-0.02-0.785-0.061c-0.263-0.041-0.517-0.102-0.76-0.184c-0.244-0.08-0.471-0.186-0.682-0.314
			c-0.211-0.127-0.393-0.279-0.548-0.457c-0.154-0.178-0.276-0.379-0.367-0.607c-0.092-0.229-0.136-0.482-0.136-0.764h0.741
			c0,0.336,0.076,0.621,0.229,0.852c0.151,0.232,0.349,0.42,0.589,0.563c0.242,0.143,0.513,0.244,0.814,0.309
			s0.603,0.096,0.903,0.096c0.342,0,0.652-0.035,0.931-0.107c0.28-0.07,0.519-0.172,0.718-0.305
			c0.198-0.131,0.352-0.289,0.458-0.473S69.02,50.674,69.02,50.449z"/>
		<path d="M71.461,44.768c0-0.123,0.045-0.229,0.132-0.314c0.089-0.084,0.21-0.129,0.361-0.129c0.152,0,0.275,0.045,0.365,0.129
			c0.09,0.086,0.135,0.191,0.135,0.314c0,0.125-0.045,0.229-0.135,0.314c-0.09,0.082-0.213,0.125-0.365,0.125
			s-0.272-0.043-0.361-0.125C71.505,44.996,71.461,44.893,71.461,44.768z M72.311,52.408h-0.723v-5.926h0.723V52.408z"/>
		<path d="M75.265,46.482l0.022,1.014c0.113-0.168,0.242-0.322,0.39-0.461c0.146-0.139,0.309-0.258,0.491-0.355
			c0.18-0.098,0.374-0.174,0.583-0.229c0.21-0.051,0.43-0.078,0.663-0.078c0.325,0,0.616,0.041,0.874,0.121
			c0.257,0.08,0.475,0.207,0.653,0.381c0.179,0.178,0.315,0.402,0.409,0.678c0.095,0.275,0.143,0.607,0.143,0.998v3.857h-0.716
			v-3.861c0-0.307-0.037-0.563-0.111-0.768c-0.071-0.205-0.175-0.369-0.306-0.492c-0.132-0.125-0.296-0.213-0.485-0.266
			c-0.191-0.053-0.403-0.08-0.637-0.08c-0.257,0-0.488,0.039-0.699,0.119c-0.208,0.076-0.395,0.182-0.554,0.313
			c-0.159,0.133-0.299,0.283-0.415,0.453c-0.115,0.168-0.208,0.342-0.276,0.521v4.059h-0.717V46.48h0.688V46.482z"/>
		<path d="M84.073,51.967c0.229,0,0.447-0.029,0.66-0.092c0.211-0.061,0.397-0.148,0.562-0.266c0.165-0.115,0.303-0.26,0.408-0.432
			c0.105-0.174,0.166-0.373,0.183-0.598h0.694c-0.018,0.281-0.093,0.539-0.233,0.777c-0.139,0.238-0.321,0.441-0.547,0.613
			c-0.229,0.174-0.49,0.307-0.787,0.402c-0.297,0.098-0.61,0.146-0.939,0.146c-0.459,0-0.861-0.076-1.205-0.229
			c-0.347-0.148-0.636-0.359-0.871-0.625c-0.233-0.268-0.411-0.582-0.53-0.941s-0.179-0.748-0.179-1.162V49.33
			c0-0.416,0.06-0.803,0.179-1.162c0.118-0.359,0.296-0.672,0.527-0.938c0.233-0.264,0.522-0.473,0.871-0.627
			c0.347-0.152,0.748-0.23,1.201-0.23c0.35,0,0.674,0.051,0.973,0.148c0.3,0.098,0.561,0.238,0.784,0.422
			c0.223,0.182,0.4,0.404,0.533,0.666c0.132,0.26,0.206,0.551,0.224,0.873h-0.694c-0.017-0.24-0.073-0.457-0.172-0.646
			c-0.098-0.189-0.229-0.354-0.391-0.488c-0.163-0.135-0.352-0.238-0.566-0.309c-0.215-0.072-0.445-0.107-0.691-0.107
			c-0.372,0-0.69,0.066-0.95,0.197c-0.257,0.133-0.471,0.309-0.634,0.531c-0.166,0.225-0.284,0.479-0.359,0.766
			c-0.075,0.289-0.11,0.592-0.11,0.904v0.23c0,0.318,0.035,0.623,0.11,0.912s0.193,0.545,0.354,0.768
			c0.165,0.221,0.377,0.396,0.639,0.527C83.382,51.9,83.699,51.967,84.073,51.967z"/>
		<path d="M90.853,52.52c-0.424,0-0.816-0.072-1.175-0.217c-0.357-0.145-0.667-0.344-0.926-0.602
			c-0.257-0.258-0.46-0.564-0.604-0.918s-0.217-0.742-0.217-1.166v-0.236c0-0.455,0.075-0.871,0.226-1.24
			c0.15-0.371,0.354-0.686,0.612-0.949c0.257-0.26,0.552-0.463,0.889-0.604c0.336-0.143,0.689-0.213,1.063-0.213
			c0.415,0,0.781,0.066,1.104,0.201c0.321,0.137,0.592,0.326,0.81,0.566s0.385,0.527,0.498,0.859s0.168,0.695,0.168,1.09v0.4h-4.651
			v0.125c0,0.326,0.055,0.633,0.162,0.916c0.11,0.289,0.261,0.537,0.459,0.75c0.196,0.213,0.43,0.379,0.704,0.502
			c0.273,0.121,0.576,0.182,0.91,0.182c0.385,0,0.726-0.063,1.021-0.191c0.297-0.127,0.563-0.33,0.806-0.613l0.453,0.313
			c-0.11,0.143-0.235,0.277-0.378,0.406c-0.144,0.127-0.309,0.238-0.497,0.334s-0.402,0.17-0.64,0.225
			C91.411,52.492,91.146,52.52,90.853,52.52z M90.72,46.934c-0.272,0-0.526,0.047-0.759,0.141c-0.232,0.096-0.439,0.23-0.618,0.406
			c-0.179,0.178-0.325,0.387-0.439,0.633c-0.113,0.246-0.192,0.52-0.232,0.82h3.912v-0.072c-0.009-0.248-0.053-0.488-0.133-0.721
			c-0.081-0.23-0.2-0.438-0.354-0.617c-0.153-0.178-0.345-0.32-0.574-0.428C91.293,46.986,91.024,46.934,90.72,46.934z"/>
		<path d="M101.562,52.408h-0.724v-7.186l-2.386,0.805v-0.613l2.988-1.006h0.12L101.562,52.408L101.562,52.408z"/>
		<path d="M106.497,51.9c0.618,0,1.139-0.08,1.563-0.242c0.423-0.16,0.767-0.383,1.027-0.668c0.261-0.283,0.451-0.619,0.568-1.008
			c0.118-0.385,0.184-0.809,0.196-1.264c-0.12,0.16-0.259,0.307-0.416,0.439c-0.155,0.135-0.327,0.248-0.514,0.344
			c-0.188,0.096-0.388,0.168-0.602,0.217c-0.213,0.051-0.436,0.078-0.667,0.078c-0.409,0-0.772-0.076-1.085-0.225
			c-0.313-0.15-0.577-0.35-0.79-0.598c-0.214-0.248-0.374-0.533-0.481-0.854c-0.109-0.322-0.163-0.654-0.163-0.998
			c0-0.383,0.06-0.744,0.182-1.082c0.119-0.338,0.293-0.635,0.521-0.891s0.504-0.457,0.831-0.605
			c0.327-0.146,0.698-0.221,1.117-0.221c0.471,0,0.881,0.08,1.23,0.236c0.349,0.156,0.639,0.375,0.869,0.656
			c0.232,0.281,0.405,0.617,0.519,1.008c0.114,0.393,0.171,0.818,0.171,1.283v0.633c0,0.396-0.025,0.777-0.08,1.145
			c-0.056,0.367-0.146,0.711-0.271,1.031c-0.127,0.322-0.293,0.615-0.498,0.879c-0.204,0.266-0.459,0.492-0.764,0.68
			c-0.302,0.188-0.657,0.334-1.065,0.438s-0.872,0.156-1.4,0.156h-0.156l0.006-0.57h0.152V51.9z M107.744,49.232
			c0.274,0,0.525-0.041,0.754-0.121s0.433-0.184,0.612-0.316c0.177-0.133,0.331-0.281,0.458-0.449
			c0.125-0.168,0.224-0.342,0.291-0.52v-0.379c0-0.42-0.051-0.789-0.15-1.109c-0.101-0.32-0.241-0.584-0.426-0.799
			c-0.182-0.213-0.399-0.375-0.652-0.484s-0.531-0.164-0.832-0.164c-0.305,0-0.577,0.061-0.817,0.178
			c-0.243,0.117-0.446,0.279-0.615,0.482c-0.171,0.203-0.299,0.438-0.385,0.703c-0.089,0.268-0.135,0.547-0.135,0.844
			c0,0.273,0.042,0.537,0.125,0.795c0.081,0.256,0.202,0.482,0.36,0.682c0.159,0.199,0.356,0.359,0.595,0.479
			C107.162,49.172,107.437,49.232,107.744,49.232z"/>
		<path d="M113.644,51.9c0.618,0,1.141-0.08,1.565-0.242c0.423-0.16,0.765-0.383,1.025-0.668c0.262-0.283,0.451-0.619,0.569-1.008
			c0.119-0.385,0.184-0.809,0.195-1.264c-0.119,0.16-0.258,0.307-0.416,0.439c-0.155,0.135-0.327,0.248-0.515,0.344
			c-0.185,0.096-0.386,0.168-0.599,0.217c-0.213,0.051-0.436,0.078-0.669,0.078c-0.409,0-0.771-0.076-1.085-0.225
			c-0.313-0.15-0.576-0.35-0.79-0.598c-0.211-0.248-0.374-0.533-0.48-0.854c-0.11-0.322-0.163-0.654-0.163-0.998
			c0-0.383,0.059-0.744,0.181-1.082c0.119-0.338,0.294-0.635,0.52-0.891c0.229-0.256,0.505-0.457,0.832-0.605
			c0.329-0.146,0.699-0.221,1.117-0.221c0.471,0,0.881,0.08,1.229,0.236c0.35,0.156,0.64,0.375,0.871,0.656s0.404,0.617,0.519,1.008
			c0.114,0.393,0.171,0.818,0.171,1.283v0.633c0,0.396-0.026,0.777-0.081,1.145c-0.053,0.367-0.145,0.711-0.27,1.031
			c-0.128,0.322-0.294,0.615-0.498,0.879c-0.206,0.266-0.46,0.492-0.762,0.68c-0.304,0.188-0.66,0.334-1.068,0.438
			c-0.407,0.104-0.875,0.156-1.401,0.156h-0.155l0.006-0.57h0.151V51.9z M114.891,49.232c0.274,0,0.524-0.041,0.754-0.121
			c0.229-0.08,0.435-0.184,0.612-0.316c0.179-0.133,0.33-0.281,0.457-0.449c0.128-0.168,0.225-0.342,0.292-0.52v-0.379
			c0-0.42-0.05-0.789-0.15-1.109c-0.099-0.32-0.242-0.584-0.423-0.799c-0.183-0.213-0.402-0.375-0.655-0.484
			s-0.529-0.164-0.831-0.164c-0.305,0-0.578,0.061-0.82,0.178c-0.24,0.117-0.446,0.279-0.613,0.482
			c-0.168,0.203-0.297,0.438-0.386,0.703c-0.09,0.268-0.134,0.547-0.134,0.844c0,0.273,0.043,0.537,0.125,0.795
			c0.081,0.256,0.202,0.482,0.361,0.682c0.158,0.199,0.354,0.359,0.594,0.479C114.31,49.172,114.582,49.232,114.891,49.232z"/>
		<path d="M124.938,49.084c0,0.586-0.06,1.092-0.181,1.523c-0.12,0.432-0.296,0.787-0.524,1.07c-0.229,0.281-0.51,0.494-0.844,0.633
			s-0.713,0.209-1.14,0.209c-0.422,0-0.799-0.07-1.133-0.209c-0.332-0.139-0.617-0.35-0.849-0.633
			c-0.232-0.283-0.411-0.639-0.535-1.07c-0.126-0.432-0.188-0.938-0.188-1.523v-1.348c0-0.584,0.063-1.09,0.186-1.52
			c0.119-0.43,0.297-0.783,0.529-1.063c0.231-0.279,0.513-0.486,0.845-0.625c0.336-0.137,0.712-0.205,1.135-0.205
			c0.421,0,0.799,0.068,1.135,0.205c0.336,0.139,0.617,0.346,0.851,0.625c0.229,0.279,0.406,0.635,0.53,1.063
			c0.123,0.43,0.184,0.936,0.184,1.52V49.084L124.938,49.084z M124.214,47.656c0-0.914-0.164-1.605-0.491-2.072
			c-0.328-0.467-0.823-0.701-1.484-0.701c-0.659,0-1.154,0.234-1.483,0.701s-0.493,1.158-0.493,2.072v1.5
			c0,0.449,0.043,0.848,0.126,1.195c0.085,0.348,0.211,0.645,0.377,0.883c0.166,0.24,0.374,0.42,0.624,0.545
			c0.248,0.125,0.536,0.188,0.86,0.188c0.329,0,0.619-0.063,0.865-0.188c0.247-0.125,0.452-0.307,0.615-0.545
			c0.161-0.238,0.282-0.535,0.363-0.883c0.082-0.348,0.121-0.746,0.121-1.195V47.656z"/>
	</g>
	<path fill="#3765AF" d="M31.041,36.26c-0.143-0.27-0.26-0.59-0.353-0.961c-0.093-0.369-0.175-0.768-0.245-1.195
		c-0.342,0.357-0.723,0.691-1.143,1.004c-0.42,0.314-0.882,0.588-1.388,0.822s-1.054,0.42-1.645,0.557
		c-0.591,0.135-1.221,0.203-1.89,0.203c-1.153,0-2.213-0.176-3.182-0.525c-0.969-0.348-1.798-0.83-2.488-1.451
		c-0.689-0.619-1.231-1.348-1.623-2.188c-0.392-0.842-0.586-1.754-0.586-2.735c0-1.238,0.234-2.334,0.705-3.288
		c0.469-0.953,1.153-1.751,2.049-2.392c0.897-0.64,1.997-1.127,3.3-1.462c1.302-0.334,2.786-0.501,4.451-0.501h3.268v-1.517
		c0-1.195-0.335-2.152-1.004-2.872c-0.669-0.718-1.688-1.078-3.054-1.078c-0.612,0-1.168,0.083-1.666,0.246
		c-0.498,0.164-0.921,0.384-1.27,0.661c-0.35,0.278-0.619,0.609-0.813,0.993c-0.192,0.385-0.288,0.797-0.288,1.238h-5.188
		c0-0.911,0.225-1.79,0.672-2.636c0.449-0.847,1.086-1.602,1.911-2.263c0.825-0.663,1.825-1.193,3.001-1.592
		c1.174-0.398,2.487-0.598,3.939-0.598c1.295,0,2.491,0.167,3.587,0.501c1.097,0.334,2.044,0.833,2.841,1.495
		c0.796,0.662,1.416,1.489,1.857,2.478c0.441,0.99,0.661,2.146,0.661,3.47v10.25c0,2.079,0.292,3.737,0.876,4.976v0.361H31.041z
		 M25.34,32.523c0.599,0,1.157-0.078,1.676-0.234c0.521-0.156,0.989-0.363,1.41-0.619c0.419-0.257,0.786-0.551,1.1-0.887
		c0.313-0.334,0.563-0.672,0.747-1.014v-4.355h-2.798c-1.922,0-3.366,0.334-4.334,1.003c-0.969,0.67-1.452,1.617-1.452,2.841
		c0,0.47,0.077,0.904,0.234,1.301c0.156,0.4,0.391,0.744,0.704,1.037c0.313,0.291,0.694,0.52,1.142,0.682
		C24.219,32.441,24.742,32.523,25.34,32.523z"/>
	<path fill="#3765AF" d="M67.221,17.897c-0.342-0.057-0.686-0.1-1.035-0.129c-0.349-0.029-0.708-0.042-1.078-0.042
		c-1.252,0-2.271,0.242-3.053,0.725c-0.783,0.484-1.367,1.154-1.751,2.008v15.802h-5.189V13.157h4.954l0.129,2.583
		c0.583-0.939,1.305-1.676,2.167-2.21c0.86-0.534,1.876-0.8,3.043-0.8c0.3,0,0.636,0.032,1.014,0.096
		c0.377,0.064,0.651,0.132,0.822,0.203L67.221,17.897z"/>
	<path fill="#DA2329" d="M79.6,7.54v5.616h4.077V17H79.6v12.897c0,0.526,0.057,0.954,0.171,1.281
		c0.113,0.328,0.275,0.58,0.491,0.758c0.214,0.18,0.467,0.301,0.757,0.363c0.293,0.064,0.617,0.096,0.973,0.096
		c0.357,0,0.7-0.023,1.035-0.074c0.334-0.049,0.594-0.096,0.78-0.139v4.014c-0.414,0.113-0.894,0.225-1.442,0.332
		c-0.548,0.107-1.206,0.16-1.975,0.16c-0.854,0-1.647-0.115-2.381-0.342c-0.733-0.229-1.367-0.6-1.9-1.109
		c-0.535-0.514-0.952-1.184-1.25-2.008c-0.297-0.826-0.448-1.837-0.448-3.033V17h-3.801v-3.843h3.801V7.54H79.6z"/>
	<path fill="#DA2329" d="M96.676,26.352l-2.307,2.371v7.537h-5.188V7.532h5.188v14.85l1.622-2.029l6.386-7.197h6.234l-8.583,9.63
		l9.502,13.474h-6.001L96.676,26.352z"/>
	<path fill="#DA2329" d="M120.028,7.54v5.616h4.078V17h-4.078v12.897c0,0.526,0.058,0.954,0.171,1.281
		c0.114,0.328,0.278,0.58,0.49,0.758c0.215,0.18,0.468,0.301,0.76,0.363c0.291,0.064,0.616,0.096,0.973,0.096
		c0.354,0,0.7-0.023,1.034-0.074c0.334-0.049,0.596-0.096,0.779-0.139v4.014c-0.413,0.113-0.894,0.225-1.441,0.332
		s-1.206,0.16-1.975,0.16c-0.854,0-1.648-0.115-2.382-0.342c-0.733-0.229-1.367-0.6-1.9-1.109c-0.535-0.514-0.951-1.184-1.249-2.008
		c-0.3-0.826-0.45-1.837-0.45-3.033V17h-3.801v-3.843h3.801V7.54H120.028z"/>
	<g>
		<g>
			<path fill="#3D3D3D" d="M129.253,30.011c0.545,0,1.078,0.14,1.598,0.419c0.52,0.281,0.923,0.681,1.214,1.201
				c0.288,0.521,0.436,1.064,0.436,1.631c0,0.559-0.145,1.096-0.43,1.613c-0.285,0.516-0.687,0.918-1.201,1.203
				s-1.055,0.428-1.615,0.428c-0.562,0-1.102-0.143-1.616-0.428c-0.516-0.285-0.917-0.688-1.202-1.203
				c-0.287-0.518-0.431-1.055-0.431-1.613c0-0.566,0.146-1.109,0.437-1.631c0.292-0.52,0.696-0.92,1.218-1.201
				C128.176,30.15,128.708,30.011,129.253,30.011z M129.253,30.549c-0.456,0-0.9,0.117-1.331,0.352
				c-0.433,0.233-0.77,0.568-1.015,1.004c-0.242,0.434-0.365,0.887-0.365,1.357c0,0.467,0.119,0.916,0.359,1.346
				c0.239,0.428,0.574,0.762,1.004,1.002c0.433,0.24,0.88,0.359,1.348,0.359c0.469,0,0.917-0.119,1.348-0.359
				c0.43-0.24,0.765-0.574,1.003-1.002c0.238-0.43,0.357-0.879,0.357-1.346c0-0.471-0.12-0.924-0.364-1.357
				c-0.243-0.436-0.58-0.771-1.014-1.004C130.15,30.666,129.706,30.549,129.253,30.549z M127.829,35.057v-3.496h1.2
				c0.409,0,0.708,0.031,0.893,0.098c0.183,0.063,0.329,0.178,0.438,0.338c0.112,0.16,0.165,0.33,0.165,0.512
				c0,0.256-0.093,0.477-0.273,0.666c-0.184,0.189-0.424,0.297-0.727,0.318c0.124,0.053,0.222,0.115,0.297,0.188
				c0.143,0.137,0.313,0.367,0.516,0.691l0.429,0.686h-0.69l-0.309-0.553c-0.246-0.434-0.441-0.703-0.592-0.813
				c-0.104-0.082-0.252-0.121-0.45-0.121h-0.334v1.486H127.829z M128.393,33.09h0.684c0.327,0,0.55-0.051,0.67-0.148
				c0.118-0.096,0.18-0.225,0.18-0.387c0-0.104-0.031-0.195-0.087-0.275c-0.058-0.082-0.138-0.143-0.238-0.184
				c-0.104-0.041-0.291-0.061-0.567-0.061h-0.643v1.055H128.393z"/>
		</g>
	</g>
	<g>
		<g>
			<defs>
				<path id="SVGID_1_" d="M41.12,36.318l-0.141-21.624h-0.068c0,2.45,1.984,4.431,4.436,4.431c2.448,0,4.435-1.982,4.435-4.431
					h0.447L50.18,36.318H41.12z"/>
			</defs>
			<clipPath id="SVGID_2_">
				<use xlink:href="#SVGID_1_"  overflow="visible"/>
			</clipPath>
			<path clip-path="url(#SVGID_2_)" fill="#3765AF" d="M47.947,36.26h-5.189V13.157h5.189V36.26z"/>
		</g>
	</g>
	<circle fill="none" cx="45.314" cy="12.133" r="4.653"/>
	<g>
		<path fill="#FFCC00" d="M45.291,8.401c2.063,0,3.742,1.68,3.742,3.744c0,2.063-1.679,3.743-3.742,3.743
			c-2.064,0-3.744-1.679-3.744-3.743C41.548,10.081,43.227,8.401,45.291,8.401 M45.291,7.504c-2.563,0-4.641,2.078-4.641,4.641
			c0,2.562,2.077,4.639,4.641,4.639c2.563,0,4.64-2.078,4.64-4.639C49.932,9.583,47.854,7.504,45.291,7.504L45.291,7.504z"/>
	</g>
	<g>
		<path fill="#F94F06" d="M45.291,8.284c2.129,0,3.86,1.732,3.86,3.861c0,2.128-1.731,3.859-3.86,3.859s-3.861-1.731-3.861-3.859
			C41.432,10.016,43.162,8.284,45.291,8.284 M45.291,7.504c-2.563,0-4.641,2.078-4.641,4.641c0,2.562,2.077,4.639,4.641,4.639
			c2.563,0,4.64-2.078,4.64-4.639C49.932,9.583,47.854,7.504,45.291,7.504L45.291,7.504z"/>
	</g>
</g>
</svg>
