<?xml version="1.0" encoding="utf-8"?>
<!-- Generator: Adobe Illustrator 16.0.0, SVG Export Plug-In . SVG Version: 6.00 Build 0)  -->
<!DOCTYPE svg PUBLIC "-//W3C//DTD SVG 1.1//EN" "http://www.w3.org/Graphics/SVG/1.1/DTD/svg11.dtd">
<svg version="1.1" id="Layer_1" xmlns="http://www.w3.org/2000/svg" xmlns:xlink="http://www.w3.org/1999/xlink" x="0px" y="0px"
	 width="35px" height="34px" viewBox="0 0 35 34" enable-background="new 0 0 35 34" xml:space="preserve">
<g>
	<path fill="#D2AF37" d="M2.51,22.695c-0.352,1.765-0.682,3.533-1.061,5.293c-0.285,1.332,0.018,2.479,0.954,3.455
		c0.677,0.703,1.513,1.095,2.499,1.095c8.4,0.004,16.801,0.007,25.201,0c2.25-0.002,3.965-2.247,3.463-4.448
		c-0.326-1.423-0.575-2.863-0.87-4.293c-0.419-2.029-0.854-4.057-1.274-6.087c-0.252-1.225-0.482-2.455-0.744-3.678
		c-0.021-0.104-0.191-0.237-0.309-0.253c-0.93-0.125-1.877-0.162-2.793-0.355c-0.715-0.15-1.402-0.453-2.075-0.75
		c-0.407-0.182-0.655-0.546-0.808-0.999c-0.398-1.182-0.836-2.352-1.275-3.519c-0.32-0.856-1.031-1.283-1.854-1.524
		c-1.811-0.53-3.682-0.661-5.549-0.591c-1.213,0.045-2.437,0.246-3.553,0.82c-1.257,0.645-1.643,1.758-1.709,3.061
		c-0.015,0.271-0.113,0.84-0.158,1.109c-0.002,0.002-0.127,0.19-0.15,0.252c-0.063,0.161-0.35,0.451-0.376,0.472
		c-0.638,0.486-1.255,1.019-2.065,1.215c-1.148,0.279-2.301,0.553-3.447,0.848c-0.112,0.029-0.252,0.177-0.277,0.292 M2.905,13.978
		c-0.496-0.155-0.983-0.283-1.451-0.46c-0.593-0.224-0.933-0.72-1.118-1.285c-0.585-1.796-0.375-3.525,0.545-5.167
		c1.066-1.903,2.732-3.159,4.586-4.207c1.447-0.818,2.983-1.428,4.586-1.837c1.109-0.283,2.248-0.505,3.388-0.605
		c2.028-0.178,4.067-0.318,6.104-0.333c1.707-0.013,3.407,0.215,5.082,0.613c2.147,0.51,4.151,1.315,5.949,2.608
		c1.463,1.052,2.698,2.328,3.535,3.92c0.715,1.357,1.066,2.837,0.799,4.388c-0.156,0.911-0.697,1.552-1.6,1.837
		c-0.32,0.101-0.65,0.181-0.982,0.237c-0.229,0.039-0.313,0.103-0.258,0.355c0.227,1.072,0.43,2.148,0.645,3.223
		c0.267,1.316,0.533,2.631,0.805,3.947c0.207,0.996,0.429,1.989,0.628,2.987c0.278,1.394,0.606,2.779,0.799,4.186
		c0.351,2.569-1.562,5.038-4.124,5.428c-0.398,0.061-0.807,0.098-1.208,0.099c-8.126,0.005-16.252,0.009-24.377,0
		c-1.965-0.003-3.519-0.8-4.552-2.513c-0.704-1.168-0.816-2.429-0.558-3.74c0.292-1.484,0.593-2.967,0.896-4.449 M18.029,1.401
		c-1.225,0.086-2.455,0.134-3.676,0.271c-1.189,0.133-2.389,0.282-3.549,0.563C9.686,2.506,8.579,2.886,7.522,3.343
		C5.738,4.114,4.084,5.115,2.816,6.635c-1.148,1.374-1.739,2.914-1.346,4.739c0.16,0.744,0.545,1.107,1.309,1.146
		c1.875,0.094,3.645-0.365,5.372-1.037c0.616-0.24,1.136-0.602,1.251-1.315c0.059-0.36,0.033-0.733,0.093-1.092
		c0.196-1.19,0.646-2.238,1.673-2.971c1.223-0.871,2.629-1.225,4.072-1.33c2.367-0.172,4.73-0.072,7.016,0.682
		c1.035,0.342,1.883,0.966,2.312,1.997c0.481,1.164,0.911,2.351,1.313,3.544c0.158,0.472,0.459,0.711,0.896,0.815
		c0.782,0.187,1.563,0.416,2.36,0.495c0.982,0.099,1.99,0.165,2.969,0.06c1.214-0.131,1.603-0.429,1.542-1.854
		c-0.041-0.92-0.263-1.82-0.695-2.625c-0.67-1.246-1.617-2.28-2.729-3.16c-2.047-1.623-4.418-2.487-6.957-2.949
		C21.535,1.461,19.789,1.365,18.029,1.401z"/>
	<path fill="#D2AF37" d="M24.379,28.604c-0.56,0-1.102,0-1.666,0c0-0.539,0-1.066,0-1.621c0.553,0,1.094,0,1.666,0
		C24.379,27.523,24.379,28.05,24.379,28.604z"/>
	<path fill="#D2AF37" d="M18.33,28.604c-0.561,0-1.102,0-1.667,0c0-0.539,0-1.066,0-1.621c0.554,0,1.095,0,1.667,0
		C18.33,27.523,18.33,28.05,18.33,28.604z"/>
	<path fill="#D2AF37" d="M12.272,28.604c-0.56,0-1.101,0-1.667,0c0-0.539,0-1.066,0-1.621c0.554,0,1.096,0,1.667,0
		C12.272,27.523,12.272,28.05,12.272,28.604z"/>
	<path fill="#D2AF37" d="M12.272,23.042c-0.56,0-1.101,0-1.667,0c0-0.538,0-1.065,0-1.62c0.554,0,1.096,0,1.667,0
		C12.272,21.962,12.272,22.488,12.272,23.042z"/>
	<path fill="#D2AF37" d="M12.272,17.152c-0.56,0-1.101,0-1.667,0c0-0.539,0-1.066,0-1.621c0.554,0,1.096,0,1.667,0
		C12.272,16.073,12.272,16.599,12.272,17.152z"/>
	<path fill="#D2AF37" d="M18.33,23.021c-0.561,0-1.102,0-1.667,0c0-0.539,0-1.066,0-1.619c0.554,0,1.095,0,1.667,0
		C18.33,21.941,18.33,22.469,18.33,23.021z"/>
	<path fill="#D2AF37" d="M18.333,17.152c-0.56,0-1.101,0-1.667,0c0-0.539,0-1.066,0-1.621c0.555,0,1.096,0,1.667,0
		C18.333,16.073,18.333,16.599,18.333,17.152z"/>
	<path fill="#D2AF37" d="M24.379,23.042c-0.56,0-1.102,0-1.666,0c0-0.538,0-1.065,0-1.62c0.553,0,1.094,0,1.666,0
		C24.379,21.962,24.379,22.488,24.379,23.042z"/>
	<path fill="#D2AF37" d="M24.379,17.152c-0.56,0-1.102,0-1.666,0c0-0.539,0-1.066,0-1.621c0.553,0,1.094,0,1.666,0
		C24.379,16.073,24.379,16.599,24.379,17.152z"/>
</g>
</svg>
