<?xml version="1.0" encoding="utf-8"?>
<!-- Generator: Adobe Illustrator 16.0.0, SVG Export Plug-In . SVG Version: 6.00 Build 0)  -->
<!DOCTYPE svg PUBLIC "-//W3C//DTD SVG 1.1//EN" "http://www.w3.org/Graphics/SVG/1.1/DTD/svg11.dtd">
<svg version="1.1" id="Layer_1" xmlns="http://www.w3.org/2000/svg" xmlns:xlink="http://www.w3.org/1999/xlink" x="0px" y="0px"
	 width="163.297px" height="29.667px" viewBox="0 0 163.297 29.667" enable-background="new 0 0 163.297 29.667"
	 xml:space="preserve">
<rect fill="#0EB47A" width="29.667" height="29.667"/>
<g>
	<path fill="#FFFFFF" d="M14.834,20.355l6.797,4.939l-2.007-6.18L14.834,20.355z M12.237,12.363l-8.404-0.001l6.799,4.941
		l-2.596,7.991l6.798-4.938l4.201-3.051l6.798-4.94l0,0l-8.403-0.001l-2.596-7.992L12.237,12.363z"/>
</g>
<rect x="33.776" fill="#0EB47A" width="29.667" height="29.667"/>
<g>
	<path fill="#FFFFFF" d="M48.61,20.355l6.797,4.939l-2.007-6.18L48.61,20.355z M46.014,12.363l-8.404-0.001l6.799,4.941
		l-2.596,7.991l6.798-4.938l4.201-3.051l6.798-4.94l0,0l-8.403-0.001L48.61,4.371L46.014,12.363z"/>
</g>
<rect x="66.88" fill="#0EB47A" width="29.667" height="29.667"/>
<g>
	<path fill="#FFFFFF" d="M81.713,20.355l6.797,4.939l-2.007-6.18L81.713,20.355z M79.118,12.363l-8.405-0.001l6.799,4.941
		l-2.596,7.991l6.797-4.938l4.201-3.051l6.799-4.94l0,0l-8.404-0.001l-2.596-7.992L79.118,12.363z"/>
</g>
<rect x="99.879" fill="#0EB47A" width="29.667" height="29.667"/>
<g>
	<path fill="#FFFFFF" d="M114.713,20.355l6.797,4.939l-2.007-6.18L114.713,20.355z M112.118,12.363l-8.404-0.001l6.8,4.941
		l-2.597,7.991l6.797-4.938l4.201-3.051l6.799-4.94l0,0l-8.403-0.001l-2.597-7.992L112.118,12.363z"/>
</g>
<rect x="133.631" y="0.002" fill="#E5E5E5" width="29.666" height="29.666"/>
<rect x="133.63" fill="#0EB47A" width="14.769" height="29.667"/>
<g>
	<path fill="#FFFFFF" d="M148.464,20.355l6.798,4.939l-2.008-6.18L148.464,20.355z M145.869,12.363l-8.404-0.001l6.799,4.941
		l-2.596,7.991l6.797-4.938l4.201-3.051l6.799-4.94l0,0l-8.404-0.001l-2.596-7.992L145.869,12.363z"/>
</g>
</svg>
